<svg xmlns="http://www.w3.org/2000/svg" width="64" height="64" viewBox="0 0 64 64" fill="none">
  <defs>
    <linearGradient id="bgGrad" x1="0" y1="0" x2="64" y2="64" gradientUnits="userSpaceOnUse">
      <stop offset="0" stop-color="#0F5132"/>
      <stop offset="1" stop-color="#0B3D2A"/>
    </linearGradient>
    <linearGradient id="flameGrad" x1="32" y1="10" x2="32" y2="44" gradientUnits="userSpaceOnUse">
      <stop offset="0" stop-color="#FFD166"/>
      <stop offset="0.6" stop-color="#F29E4C"/>
      <stop offset="1" stop-color="#E76F51"/>
    </linearGradient>
  </defs>

  <!-- Rounded square background -->
  <rect x="4" y="4" width="56" height="56" rx="12" fill="url(#bgGrad)"/>

  <!-- Crossed logs -->
  <g filter="url(#shadowLogs)">
    <rect x="16" y="46" width="32" height="6" rx="3" transform="rotate(-20 16 46)" fill="#7B4E2E"/>
    <rect x="16" y="46" width="32" height="6" rx="3" transform="rotate(20 16 46)" fill="#8D5A36"/>
    <circle cx="22" cy="48" r="1.5" fill="#5C3B22"/>
    <circle cx="42" cy="48" r="1.5" fill="#5C3B22"/>
  </g>

  <!-- Flame -->
  <g>
    <path d="M32 12c2 6-2 8-2 12 0 3 3 4 5 6 2 2 3 4 3 7 0 5-4 9-9 9s-9-4-9-9c0-5 4-9 8-12 3-3 2-7 4-13z" fill="url(#flameGrad)"/>
    <path d="M30 27c1.2 3-1.2 3.8-1.2 5.6 0 1.6 1.8 2.2 3 3.2 1.2 1 1.8 2.2 1.8 3.8 0 2.8-2.2 5-5 5s-5-2.2-5-5c0-2.8 2.2-5 4.4-6.8 1.6-1.6 1.2-3.8 2-5.8z" fill="#FFE3A3" opacity="0.9"/>
  </g>

  <!-- Subtle flame glow -->
  <ellipse cx="32" cy="50" rx="12" ry="3" fill="#000" opacity="0.2"/>

  <!-- Drop shadows (filters) -->
  <defs>
    <filter id="shadowLogs" x="0" y="34" width="64" height="20" color-interpolation-filters="sRGB">
      <feOffset dy="1"/>
      <feGaussianBlur stdDeviation="1.5"/>
      <feColorMatrix type="matrix" values="0 0 0 0 0   0 0 0 0 0   0 0 0 0 0   0 0 0 0.2 0"/>
      <feBlend mode="normal" in2="SourceGraphic" result="effect1_dropShadow"/>
      <feBlend mode="normal" in="SourceGraphic" in2="effect1_dropShadow" result="shape"/>
    </filter>
  </defs>
</svg>